PathFileType	4	(X/Y/Z)	C:/Users/beibeiliu/ov580/test_trc/User3\out9_training_dense_left.trc
DataRate	CameraRate	NumFrames	NumMarkers	Units	OrigDataRate	OrigDataStartFrame	OrigNumFrames
120	120	24	19	mm	120	188	500
Frame#	Time	ThumbCMC			ThumbMCP			ThumbIP			ThumbTip			IndexMCP			IndexPIP			IndexTip			MiddleMCP			MiddlePIP			MiddleTip			RingMCP			RingPIP			RingTip			PinkyMCP			PinkyPIP			PinkyTip			BackHand1			BackHand2			BackHand3	
		X0	Y0	Z0	X1	Y1	Z1	X2	Y2	Z2	X3	Y3	Z3	X4	Y4	Z4	X5	Y5	Z5	X6	Y6	Z6	X7	Y7	Z7	X8	Y8	Z8	X9	Y9	Z9	X10	Y10	Z10	X11	Y11	Z11	X12	Y12	Z12	X13	Y13	Z13	X14	Y14	Z14	X15	Y15	Z15	X16	Y16	Z16	X17	Y17	Z17	X18	Y18	Z18	
187	1.55833	-117.201	37.1484	73.6391	-98.7804	29.668	51.1762	-81.3308	22.3871	25.4491	-78.756	13.2172	3.42289	-138.508	62.0016	3.04282	-130.292	66.8074	-22.5236	-125.668	53.7518	-52.8366	-166.976	61.7881	0.868071	-176.098	60.9968	-28.2015	-176.893	44.5176	-56.8611	-179.378	34.2916	2.06809	-176.837	8.41838	-13.4424	-164.22	-14.881	4.2786	-194.771	11.8287	20.0217	-180.756	-12.1725	16.6829	-160.299	-15.577	38.4849	-177.08	51.6456	55.7664	-178.931	49.056	87.2512	-149.508	58.71	68.1184	
188	1.56667	-115.492	38.4803	73.4818	-97.234	30.7172	47.9758	-86.2492	23.3471	20.9116	-92.1219	11.3648	-1.65736	-139.969	64.9749	6.58507	-133.468	69.488	-22.2453	-131.793	52.5166	-49.925	-171.715	62.6871	8.69124	-176.335	65.6012	-25.0941	-176.798	41.7217	-57.2835	-184.619	36.363	5.905	-181.747	9.83572	-10.8136	-163.001	-10.6061	8.96644	-193.19	14.2105	19.7932	-183.416	-9.34619	17.9093	-164.423	-14.8112	40.0231	-183.193	53.857	58.5568	-176.984	50.538	93.0691	-149.03	60.7171	68.7966	
189	1.575	-116.936	39.6612	72.2884	-104.086	31.48	46.52	-90.3389	22.6349	20.5427	-98.4312	10.2906	-4.48527	-140.884	66.9786	9.95823	-137.054	71.8025	-23.266	-132.941	55.0167	-47.5013	-172.346	66.9878	9.47868	-181.623	68.8588	-22.599	-181.847	42.9305	-51.6505	-183.531	39.9827	5.18137	-183.604	10.0153	-9.53851	-163.455	-8.41431	11.0017	-195.998	15.5762	20.9564	-181.698	-5.11848	18.1282	-161.699	-9.88634	41.7189	-180.051	56.0368	64.0467	-178.383	52.539	94.6031	-147.17	60.4015	71.4983	
190	1.58333	-115.028	41.0209	71.0197	-101.566	31.6468	42.8075	-93.3187	23.0609	15.7753	-101.374	11.4978	-5.53337	-143.853	67.6481	9.16504	-143.08	72.7034	-22.1495	-135.937	55.2752	-49.5881	-174.067	69.6814	8.39241	-180.453	71.6587	-26.1807	-183.319	46.7012	-50.9953	-189.066	39.5762	9.27491	-183.046	15.692	-10.9639	-167.635	-7.07199	10.9912	-196.078	20.4597	24.8004	-181.304	-4.13346	18.0585	-160.678	-7.67568	42.581	-184.653	54.3997	59.2025	-180.64	52.1686	89.7952	-146.635	62.1916	73.6071	
191	1.59167	-119.58	41.4016	67.9855	-103.213	31.917	45.7017	-95.0699	23.1852	19.1848	-104.035	11.8664	-4.6624	-145.041	69.8731	6.12426	-141.114	75.9706	-25.2777	-138.83	60.7446	-50.0461	-175.173	71.3431	7.96198	-184.942	74.7734	-22.5544	-184.879	50.5752	-54.2235	-185.393	42.4089	3.73777	-185.122	14.3338	-10.7205	-168.752	-5.68283	9.85983	-194.177	21.213	21.7487	-183.479	-3.54939	16.5719	-162.126	-4.23605	41.0772	-185.298	57.1613	59.3972	-180.99	54.0719	88.3651	-151.902	61.9239	72.5864	
192	1.6	-116.655	41.0527	69.3976	-102.915	31.8533	42.6003	-96.8926	23.2395	16.0303	-97.8852	10.2389	-8.23014	-145.337	72.2135	3.88402	-144.731	75.9986	-23.308	-135.895	63.1841	-52.5213	-176.072	70.6512	9.24265	-186.72	75.314	-22.3282	-188.724	58.6069	-54.206	-190.027	40.7872	4.86891	-186.969	14.5539	-12.2395	-166.222	-5.25624	7.0246	-200.044	19.5114	23.0208	-186.913	-4.70944	17.3646	-165.861	-9.74182	40.9142	-184.692	56.5064	61.7153	-177.378	54.035	92.0054	-150.64	62.7908	70.8816	
193	1.60833	-117.187	41.6894	70.9052	-106.329	29.6313	44.3885	-95.4471	21.6021	15.6948	-90.4388	11.0701	-4.28771	-145.627	71.0143	1.6667	-141.188	74.3761	-25.5221	-140.799	65.7001	-53.891	-177.582	71.7916	3.87632	-187.238	75.6267	-22.4986	-192.65	62.4286	-55.4915	-192.3	39.8022	3.8617	-187.86	14.4654	-12.4211	-173.445	-7.67695	3.43545	-198.166	22.4593	23.717	-188.168	-5.37149	17.7384	-164.86	-10.8657	41.8388	-187.259	56.4847	57.8671	-183.384	55.904	91.1891	-149.917	63.6718	68.7667	
194	1.61667	-119.898	40.3597	66.1494	-103.268	29.8449	43.4765	-92.9902	20.2828	20.9902	-88.614	11.5626	-2.93125	-146.359	67.9254	1.01333	-140.413	72.7084	-29.2518	-136.716	69.0942	-51.6418	-175.555	69.8029	3.74825	-186.181	75.1425	-26.4207	-193.661	67.5605	-55.2851	-191.049	40.1996	6.88434	-190.975	15.5179	-12.6141	-171.421	-11.4852	3.27676	-200.04	20.9614	23.4836	-185.546	-4.99394	17.7499	-165.097	-12.2597	37.6762	-186.121	57.0925	59.9001	-180.092	54.2288	89.8585	-151.406	63.0962	70.1749	
195	1.625	-118.268	38.1403	69.2638	-103.804	27.4507	46.3564	-87.8704	20.1803	20.4537	-78.8581	9.89167	4.18857	-143.324	64.7577	2.36496	-139.578	71.0742	-29.4932	-136.176	69.4396	-53.2024	-175.425	67.8706	1.18943	-184.519	72.3989	-22.9168	-190.087	70.205	-59.8597	-192.02	37.5695	6.35083	-192.518	13.7566	-13.4941	-177.154	-13.8086	-2.97545	-198.605	18.4963	21.0518	-188.739	-4.02688	14.8339	-164.951	-13.6245	34.6432	-184.277	57.9996	57.1184	-178.766	55.5225	85.1966	-151.069	63.0898	64.0445	
196	1.63333	-120.227	37.748	67.861	-102.894	27.0274	48.3251	-84.4121	18.5485	25.7414	-71.4596	10.7844	3.49712	-141.001	62.7187	0.440933	-138.997	66.9054	-25.0791	-137.168	69.8729	-52.5233	-173.751	63.646	1.775	-183.549	68.7589	-28.4488	-185.703	71.6962	-61.516	-190.014	37.0789	3.19122	-186.422	11.5712	-17.0851	-174.517	-15.452	-6.84289	-197.674	18.4294	21.1519	-187.949	-7.00342	15.0095	-167.47	-17.9241	34.7028	-185.372	56.2341	56.6652	-180.901	56.4469	86.9154	-146.982	61.8002	66.8416	
197	1.64167	-114.852	38.3997	67.9766	-100.938	25.8754	49.5542	-83.9663	17.859	24.0335	-68.9045	9.88839	8.16791	-138.405	61.5015	-2.23892	-136.248	65.5871	-29.0699	-132.581	68.9894	-50.1648	-173.292	61.3178	-0.183571	-174.736	66.1304	-27.5149	-182.1	70.0871	-61.538	-186.861	37.7444	2.85491	-186.224	14.5426	-17.7266	-177.779	-15.3778	-8.24395	-197.086	18.1186	20.0524	-187.872	-7.47065	15.0739	-168.302	-20.4875	30.338	-181.573	55.9334	54.6759	-178.217	53.7365	88.3803	-148.842	60.3527	63.6497	
198	1.65	-112.142	35.7968	71.4759	-100.476	23.5752	47.934	-82.4634	14.9357	27.8907	-70.3094	6.95414	6.7485	-137.323	58.0087	0.707217	-130.036	63.8961	-26.8017	-131.78	66.9646	-51.3685	-171.113	60.8952	-4.44714	-176.494	64.3341	-31.4338	-178.635	67.0082	-61.9	-187.418	38.7094	4.69832	-189.564	14.6731	-18.0071	-177.149	-12.4066	-13.8548	-198.092	19.4047	22.0727	-190.138	-7.66581	13.9452	-170.269	-21.2885	29.8462	-181.263	55.7936	52.8142	-175.445	53.8289	85.4528	-145.474	59.8733	66.9792	
199	1.65833	-115.67	34.2887	68.2291	-99.3876	23.8853	45.0245	-81.6637	14.182	21.0358	-75.3073	4.49083	5.0183	-137.036	60.1793	-1.69649	-130.26	63.2091	-26.8559	-125.741	63.9757	-53.2614	-164.761	63.1494	-2.88882	-170.767	65.2484	-28.025	-176.477	65.0116	-59.3471	-182.287	40.4178	3.55703	-184.437	18.8534	-18.5513	-174.933	-12.8443	-11.2842	-196.76	16.4886	17.3082	-187.479	-4.95527	12.0493	-170.252	-19.6548	31.733	-174.979	55.2087	53.1151	-174.818	54.2644	86.0076	-140.418	61.0527	63.1516	
200	1.66667	-114.128	34.0129	69.5575	-98.572	23.3149	46.2233	-83.2446	12.8209	22.2352	-85.3583	2.29255	0.998652	-136.558	61.7137	0.146662	-127.747	64.5654	-24.1943	-122.45	59.1665	-52.8914	-166.603	62.1857	4.24784	-166.594	68.6077	-30.6063	-174.206	59.4868	-59.8373	-178.93	40.6786	6.83782	-183.846	19.2931	-16.7737	-169.882	-11.7497	-7.4023	-193.468	19.4289	20.7971	-185.065	-6.33999	14.0209	-166.207	-19.6352	36.1696	-177.512	53.5177	59.1262	-176.63	52.2501	89.0255	-145.311	58.9453	70.8024	
201	1.675	-113.23	34.5958	70.9691	-94.9785	23.0299	50.4393	-87.8311	13.6263	24.4464	-93.5753	0.825322	1.35359	-138.352	62.1101	5.26482	-130.806	65.9825	-27.3174	-125.328	54.7141	-49.2169	-163.491	66.3129	5.28708	-168.091	68.669	-29.4399	-171.132	53.6353	-58.2217	-183.678	40.3678	4.81021	-182.539	14.6898	-14.3472	-167.794	-12.0595	1.44549	-194.257	17.8833	20.0147	-181.901	-9.72489	16.2539	-165.756	-15.3257	38.5251	-178.891	54.1386	56.6701	-174.329	51.7059	91.3915	-144.778	59.8395	72.9906	
202	1.68333	-113.783	34.6938	75.813	-102.634	24.9912	45.7669	-94.8302	13.8123	20.1781	-103.804	-0.312496	-1.24686	-136.363	64.2402	8.85528	-130.022	67.3515	-26.0482	-128.815	47.5077	-46.2935	-163.197	67.3387	8.246	-166.589	69.9306	-29.1492	-170.354	45.1581	-51.9622	-177.895	42.5084	5.85237	-177.52	20.1207	-14.6601	-164.408	-5.74124	3.27461	-190.444	17.6011	18.2068	-181.164	-5.36289	15.0383	-164.083	-12.8732	40.7262	-176.603	54.0039	57.4477	-174.717	53.1337	90.0917	-145.712	59.1222	69.6359	
203	1.69167	-113.161	36.1584	71.8075	-99.5237	23.9465	42.795	-97.1289	12.5557	15.2629	-115.791	2.03117	0.628786	-139.476	65.8543	7.37729	-130.96	66.893	-24.4636	-129.095	39.2747	-42.0632	-164.174	67.333	7.91609	-165.549	67.8421	-28.0026	-160.706	36.5574	-46.9881	-180.677	41.0638	6.798	-173.389	14.9884	-12.147	-161.629	-5.35811	12.0537	-189.314	20.7195	21.3259	-175.496	-5.25102	16.8216	-162.606	-7.77546	40.8142	-179.797	53.456	57.7026	-179.62	50.603	91.8659	-142.816	60.0292	70.6696	
204	1.7	-116.875	37.1334	72.4475	-100.66	26.662	43.1954	-101.899	15.0321	18.9034	-123.073	3.60796	-0.475405	-136.427	70.3672	4.49956	-135.792	64.1962	-26.4288	-127.884	34.0902	-37.0621	-167.143	69.0555	7.22372	-167.642	68.2898	-25.9925	-161.945	32.7188	-40.9079	-176.76	43.3077	6.25205	-171.099	16.0183	-10.7143	-160.056	-0.692961	11.9699	-187.913	21.6129	20.1165	-173.537	-3.55651	17.282	-163.092	-6.01268	45.5077	-176.479	55.2474	59.8748	-175.457	50.253	90.7719	-145.585	61.5285	73.9653	
205	1.70833	-112.506	37.2455	71.6262	-100.607	25.8785	45.3098	-104.395	16.7437	13.0958	-121.62	5.1575	-3.0226	-138.047	69.8875	9.09143	-130.391	66.638	-25.5249	-126.937	37.3962	-36.1493	-163.135	71.544	6.88981	-167.321	67.2116	-26.9349	-157.387	30.6992	-39.7333	-179.218	43.4164	3.14945	-170.988	16.3005	-10.3446	-154.904	2.95315	12.2294	-183.288	21.3583	15.4539	-170.855	-2.27603	17.9283	-158.469	-2.22255	43.6449	-177.178	56.9741	60.3852	-179.944	47.1607	91.4525	-147.211	60.4697	74.8473	
206	1.71667	-114.073	36.7002	70.5216	-101.833	26.0562	43.5662	-103.716	17.5593	14.2918	-120.479	7.06526	-7.52429	-139.336	71.3869	8.09331	-129.547	68.0266	-26.2681	-123.534	41.4586	-39.0367	-161.871	72.8559	5.0514	-166.253	67.6077	-27.3469	-154.262	36.0173	-42.7223	-177.472	44.6507	6.10948	-167.848	19.1812	-11.3596	-155.608	3.98202	17.5836	-184.242	23.1657	19.59	-167.537	-0.449888	18.4867	-155.565	2.14966	48.0226	-175.841	57.3431	60.2531	-178.765	47.3455	93.5101	-143.672	60.9797	72.708	
207	1.725	-114.134	36.6172	73.7584	-99.7815	25.6483	45.3906	-97.5047	18.7354	14.2524	-107.233	7.87393	-7.36784	-135.188	73.186	7.42904	-126.967	72.2923	-22.4393	-122.199	50.2522	-41.2459	-162.465	72.836	5.55589	-163.881	71.4987	-26.1434	-156.314	40.9242	-48.8812	-171.613	45.6616	4.86505	-169.919	19.5871	-10.3744	-153.288	3.40788	12.7956	-184.503	19.4632	17.7958	-168.111	-3.41213	19.5886	-158.689	0.448328	49.8245	-174.89	55.7997	61.7156	-177.06	49.5611	91.1617	-144.286	59.6439	77.411	
208	1.73333	-112.363	35.8184	75.8517	-100.829	26.8463	46.0972	-90.783	18.1658	17.1983	-97.4438	7.39248	-7.84609	-135.198	71.1324	7.25246	-123.528	73.773	-23.1853	-120.586	57.4744	-45.1589	-161.096	70.8773	7.53344	-160.328	71.6546	-26.5019	-156.993	45.8367	-55.6734	-175.184	42.6941	6.46507	-162.579	16.3731	-10.1546	-150.47	-0.930749	15.2619	-179.527	21.0621	17.6788	-163.526	-3.17034	21.3857	-155.31	-3.18666	45.6298	-174.215	54.0079	63.1585	-176.533	47.6569	92.478	-145.289	59.4007	76.018	
209	1.74167	-111.123	35.5452	74.9221	-97.0183	24.6415	50.2239	-86.7057	16.8111	17.9268	-85.9517	7.27626	-1.95949	-131.312	68.0756	9.39526	-124.623	71.88	-22.0371	-121.222	61.9249	-48.7997	-160.813	68.5786	5.82797	-160.537	71.5307	-28.3371	-153.604	56.2822	-59.7609	-170.13	41.1249	6.29096	-162.544	15.0558	-12.1836	-147.827	-5.60139	13.4528	-180.942	16.723	18.9233	-165.641	-7.18026	21.3486	-151.459	-4.69637	48.9987	-174.34	54.6499	61.1327	-171.834	50.5132	87.6579	-143.773	60.5503	76.3171	
210	1.75	-108.695	36.7899	71.1936	-94.2826	22.6799	49.4638	-82.2389	14.5896	22.8743	-72.4736	5.23012	1.45139	-124.366	68.5679	4.67574	-117.056	72.4301	-24.0732	-117.062	67.8642	-47.5852	-155.842	67.443	1.33739	-154.746	70.7109	-25.7247	-155.292	60.9506	-63.5778	-169.733	36.1861	3.4311	-159.926	13.1434	-12.1711	-146.142	-8.53583	10.1631	-180.722	15.5004	18.0009	-162.584	-8.77182	19.92	-146.296	-8.30616	44.5097	-170.32	55.7396	60.9573	-171.832	47.8137	91.0958	-139.363	60.4918	70.224	
